<?xml version="1.0" encoding="UTF-8"?>
<svg width="22px" height="22px" viewBox="0 0 22 22" version="1.1" xmlns="http://www.w3.org/2000/svg" xmlns:xlink="http://www.w3.org/1999/xlink">
    <!-- Generator: Sketch 50.2 (55047) - http://www.bohemiancoding.com/sketch -->
    <title>01d</title>
    <desc>Created with Sketch.</desc>
    <defs></defs>
    <g id="Page-1" stroke="none" stroke-width="1" fill="none" fill-rule="evenodd">
        <g id="01d" fill="#FFFFFF" fill-rule="nonzero">
            <path d="M0.37,10.62 C0.37,10.38 0.45,10.17 0.62,10 C0.79,9.84 1,9.76 1.22,9.76 L3.26,9.76 C3.49,9.76 3.68,9.84 3.84,10.01 C3.99,10.18 4.07,10.38 4.07,10.62 C4.07,10.86 4,11.06 3.85,11.23 C3.7,11.4 3.5,11.48 3.27,11.48 L1.23,11.48 C1,11.48 0.8,11.4 0.63,11.23 C0.46,11.06 0.37,10.86 0.37,10.62 Z M3.23,17.55 C3.23,17.32 3.31,17.12 3.46,16.94 L4.93,15.51 C5.08,15.35 5.28,15.28 5.52,15.28 C5.76,15.28 5.96,15.36 6.12,15.51 C6.28,15.66 6.36,15.85 6.36,16.08 C6.36,16.32 6.28,16.54 6.12,16.72 L4.7,18.14 C4.29,18.46 3.88,18.46 3.47,18.14 C3.31,17.98 3.23,17.78 3.23,17.55 Z M3.23,3.71 C3.23,3.48 3.31,3.28 3.46,3.1 C3.66,2.93 3.87,2.85 4.1,2.85 C4.32,2.85 4.52,2.93 4.69,3.09 L6.12,4.56 C6.28,4.71 6.36,4.91 6.36,5.15 C6.36,5.39 6.28,5.59 6.12,5.75 C5.96,5.91 5.76,5.99 5.52,5.99 C5.28,5.99 5.08,5.91 4.93,5.75 L3.47,4.32 C3.31,4.16 3.23,3.95 3.23,3.71 Z M5.78,10.62 C5.78,9.69 6.01,8.82 6.48,8.02 C6.95,7.22 7.58,6.58 8.39,6.11 C9.2,5.64 10.06,5.41 10.99,5.41 C11.69,5.41 12.36,5.55 13.01,5.83 C13.65,6.11 14.21,6.48 14.67,6.95 C15.14,7.42 15.51,7.97 15.78,8.61 C16.05,9.25 16.19,9.93 16.19,10.63 C16.19,11.57 15.96,12.44 15.49,13.24 C15.02,14.04 14.39,14.67 13.59,15.14 C12.79,15.61 11.92,15.84 10.98,15.84 C10.04,15.84 9.17,15.61 8.37,15.14 C7.57,14.67 6.94,14.04 6.47,13.24 C6.02,12.43 5.78,11.56 5.78,10.62 Z M7.48,10.62 C7.48,11.6 7.82,12.43 8.51,13.12 C9.19,13.81 10.02,14.16 11,14.16 C11.98,14.16 12.81,13.81 13.5,13.12 C14.19,12.43 14.54,11.6 14.54,10.62 C14.54,9.66 14.19,8.84 13.5,8.15 C12.81,7.47 11.98,7.13 11,7.13 C10.03,7.13 9.2,7.47 8.52,8.15 C7.82,8.84 7.48,9.66 7.48,10.62 Z M10.14,18.4 C10.14,18.16 10.22,17.96 10.39,17.8 C10.56,17.64 10.76,17.56 10.99,17.56 C11.23,17.56 11.44,17.64 11.6,17.8 C11.76,17.96 11.84,18.16 11.84,18.4 L11.84,20.39 C11.84,20.63 11.76,20.84 11.59,21.01 C11.42,21.18 11.22,21.26 10.99,21.26 C10.76,21.26 10.55,21.18 10.39,21.01 C10.22,20.84 10.14,20.63 10.14,20.39 L10.14,18.4 Z M10.14,2.9 L10.14,0.86 C10.14,0.63 10.22,0.43 10.39,0.26 C10.56,0.09 10.76,0 11,0 C11.24,0 11.43,0.08 11.6,0.25 C11.77,0.42 11.85,0.62 11.85,0.85 L11.85,2.9 C11.85,3.13 11.77,3.32 11.6,3.48 C11.43,3.64 11.23,3.71 11,3.71 C10.77,3.71 10.56,3.63 10.4,3.48 C10.24,3.33 10.14,3.13 10.14,2.9 Z M15.66,16.08 C15.66,15.85 15.74,15.66 15.89,15.52 C16.04,15.36 16.23,15.29 16.45,15.29 C16.69,15.29 16.89,15.37 17.05,15.52 L18.51,16.95 C18.67,17.12 18.75,17.33 18.75,17.56 C18.75,17.79 18.67,17.99 18.51,18.15 C18.11,18.46 17.71,18.46 17.31,18.15 L15.89,16.73 C15.74,16.55 15.66,16.34 15.66,16.08 Z M15.66,5.16 C15.66,4.91 15.74,4.71 15.89,4.57 L17.31,3.1 C17.48,2.94 17.68,2.86 17.9,2.86 C18.14,2.86 18.34,2.94 18.5,3.11 C18.67,3.28 18.75,3.48 18.75,3.71 C18.75,3.96 18.67,4.17 18.51,4.33 L17.05,5.76 C16.87,5.92 16.67,6 16.45,6 C16.22,6 16.04,5.92 15.89,5.76 C15.74,5.6 15.66,5.4 15.66,5.16 Z M17.92,10.62 C17.92,10.38 18,10.18 18.16,10 C18.32,9.84 18.51,9.76 18.73,9.76 L20.75,9.76 C20.98,9.76 21.18,9.85 21.35,10.02 C21.52,10.19 21.61,10.39 21.61,10.62 C21.61,10.85 21.52,11.05 21.35,11.22 C21.18,11.39 20.98,11.47 20.75,11.47 L18.73,11.47 C18.5,11.47 18.3,11.39 18.15,11.22 C18,11.05 17.92,10.86 17.92,10.62 Z" id="Shape"></path>
        </g>
    </g>
</svg>