<?xml version="1.0" encoding="UTF-8"?>
<svg width="16px" height="15px" viewBox="0 0 16 15" version="1.1" xmlns="http://www.w3.org/2000/svg" xmlns:xlink="http://www.w3.org/1999/xlink">
    <!-- Generator: Sketch 50.2 (55047) - http://www.bohemiancoding.com/sketch -->
    <title>01n</title>
    <desc>Created with Sketch.</desc>
    <defs></defs>
    <g id="Page-1" stroke="none" stroke-width="1" fill="none" fill-rule="evenodd">
        <g id="01n" fill="#FFFFFF" fill-rule="nonzero">
            <path d="M0.91,7.48 C0.91,6.52 1.1,5.61 1.47,4.73 C1.84,3.85 2.35,3.1 2.98,2.47 C3.61,1.84 4.37,1.33 5.25,0.95 C6.13,0.57 7.05,0.38 8,0.38 L9.14,0.38 C9.3,0.42 9.37,0.52 9.37,0.66 L9.42,1.54 C9.46,2.81 9.91,3.89 10.79,4.78 C11.67,5.67 12.73,6.15 13.98,6.2 L14.8,6.27 C14.96,6.27 15.04,6.35 15.04,6.5 L15.04,7.48 C15.05,8.76 14.74,9.95 14.11,11.04 C13.48,12.13 12.63,12.99 11.54,13.63 C10.46,14.26 9.27,14.58 7.99,14.58 C7.02,14.58 6.09,14.39 5.21,14.02 C4.33,13.65 3.58,13.14 2.95,12.51 C2.32,11.88 1.82,11.12 1.45,10.25 C1.1,9.37 0.91,8.45 0.91,7.48 Z M2.74,7.48 C2.74,8.24 2.89,8.96 3.19,9.64 C3.49,10.31 3.89,10.88 4.38,11.34 C4.87,11.8 5.43,12.16 6.07,12.42 C6.7,12.69 7.35,12.82 8.01,12.82 C8.59,12.82 9.18,12.71 9.77,12.48 C10.36,12.25 10.91,11.93 11.42,11.52 C11.93,11.11 12.36,10.59 12.73,9.95 C13.1,9.31 13.33,8.62 13.44,7.86 C11.81,7.52 10.5,6.82 9.52,5.76 C8.54,4.7 7.97,3.46 7.82,2.02 C6.86,2.08 6,2.37 5.21,2.9 C4.43,3.43 3.82,4.1 3.39,4.92 C2.96,5.74 2.74,6.59 2.74,7.48 Z" id="Shape"></path>
        </g>
    </g>
</svg>