<?xml version="1.0" encoding="UTF-8"?>
<svg width="28px" height="22px" viewBox="0 0 28 22" version="1.1" xmlns="http://www.w3.org/2000/svg" xmlns:xlink="http://www.w3.org/1999/xlink">
    <!-- Generator: Sketch 50.2 (55047) - http://www.bohemiancoding.com/sketch -->
    <title>02d</title>
    <desc>Created with Sketch.</desc>
    <defs></defs>
    <g id="Page-1" stroke="none" stroke-width="1" fill="none" fill-rule="evenodd">
        <g id="02d" fill="#FFFFFF" fill-rule="nonzero">
            <path d="M0.56,16.9 C0.56,17.8 0.78,18.63 1.22,19.39 C1.66,20.15 2.26,20.75 3.02,21.19 C3.78,21.63 4.6,21.85 5.49,21.85 L16.32,21.85 C17.21,21.85 18.04,21.63 18.8,21.19 C19.56,20.75 20.17,20.15 20.61,19.39 C21.05,18.63 21.28,17.8 21.28,16.9 C21.28,16.24 21.14,15.57 20.86,14.9 C21.62,13.98 22,12.87 22,11.6 C22,10.89 21.86,10.21 21.59,9.56 C21.32,8.91 20.94,8.36 20.47,7.89 C20,7.42 19.45,7.04 18.8,6.77 C18.15,6.49 17.47,6.36 16.76,6.36 C15.28,6.36 13.99,6.94 12.88,8.1 C12.11,7.66 11.21,7.44 10.18,7.44 C8.77,7.44 7.53,7.88 6.45,8.75 C5.37,9.62 4.67,10.74 4.37,12.1 C3.25,12.36 2.34,12.93 1.63,13.83 C0.92,14.73 0.56,15.75 0.56,16.9 Z M2.27,16.9 C2.27,16.06 2.55,15.34 3.11,14.73 C3.67,14.12 4.37,13.77 5.21,13.67 L5.71,13.64 C5.83,13.64 5.9,13.58 5.9,13.46 L5.97,12.92 C6.11,11.84 6.58,10.93 7.38,10.21 C8.18,9.48 9.12,9.12 10.19,9.12 C11.29,9.12 12.25,9.49 13.06,10.22 C13.88,10.95 14.33,11.85 14.43,12.93 L14.5,13.51 C14.52,13.62 14.59,13.68 14.71,13.68 L16.32,13.68 C17.2,13.68 17.96,14 18.6,14.64 C19.24,15.28 19.56,16.03 19.56,16.91 C19.56,17.82 19.24,18.59 18.61,19.23 C17.98,19.87 17.21,20.19 16.33,20.19 L5.49,20.19 C4.61,20.19 3.86,19.87 3.22,19.22 C2.59,18.57 2.27,17.8 2.27,16.9 Z M8.97,4.63 C8.97,4.87 9.05,5.08 9.21,5.26 L9.87,5.9 C10.12,6.09 10.33,6.17 10.51,6.15 C10.72,6.15 10.9,6.06 11.06,5.89 C11.22,5.72 11.3,5.51 11.3,5.27 C11.3,5.03 11.21,4.83 11.04,4.68 L10.45,4.02 C10.27,3.86 10.07,3.78 9.84,3.78 C9.6,3.78 9.39,3.86 9.22,4.03 C9.05,4.19 8.97,4.39 8.97,4.63 Z M14.31,9.06 C15,8.39 15.82,8.06 16.76,8.06 C17.75,8.06 18.59,8.4 19.28,9.09 C19.97,9.78 20.32,10.61 20.32,11.6 C20.32,12.22 20.15,12.84 19.81,13.44 C18.84,12.48 17.68,12 16.32,12 L16,12 C15.75,10.91 15.19,9.93 14.31,9.06 Z M15.94,3.78 C15.94,4.04 16.02,4.24 16.17,4.4 C16.32,4.56 16.52,4.63 16.76,4.63 C17.02,4.63 17.22,4.55 17.38,4.4 C17.54,4.24 17.61,4.04 17.61,3.78 L17.61,1.73 C17.61,1.49 17.53,1.3 17.37,1.14 C17.21,0.98 17.01,0.91 16.76,0.91 C16.52,0.91 16.33,0.99 16.17,1.14 C16.01,1.29 15.94,1.49 15.94,1.73 L15.94,3.78 Z M21.46,6.07 C21.46,6.33 21.53,6.53 21.68,6.69 C21.89,6.85 22.1,6.93 22.3,6.93 C22.48,6.93 22.68,6.85 22.89,6.69 L24.32,5.26 C24.48,5.08 24.56,4.87 24.56,4.62 C24.56,4.38 24.48,4.18 24.32,4.02 C24.16,3.86 23.96,3.78 23.73,3.78 C23.49,3.78 23.3,3.86 23.15,4.02 L21.68,5.45 C21.53,5.64 21.46,5.84 21.46,6.07 Z M22.25,17.91 C22.25,18.15 22.33,18.36 22.5,18.54 L23.15,19.17 C23.3,19.33 23.49,19.41 23.73,19.41 C23.97,19.41 24.17,19.33 24.33,19.16 C24.49,18.99 24.57,18.79 24.57,18.54 C24.57,18.32 24.49,18.12 24.33,17.96 L23.68,17.31 C23.52,17.15 23.33,17.07 23.11,17.07 C22.87,17.07 22.67,17.15 22.51,17.31 C22.34,17.47 22.25,17.67 22.25,17.91 Z M23.72,11.6 C23.72,11.83 23.81,12.02 23.98,12.18 C24.14,12.34 24.35,12.42 24.59,12.42 L26.63,12.42 C26.86,12.42 27.05,12.34 27.21,12.19 C27.37,12.04 27.44,11.84 27.44,11.6 C27.44,11.36 27.36,11.16 27.21,11 C27.06,10.84 26.86,10.75 26.63,10.75 L24.59,10.75 C24.35,10.75 24.15,10.83 23.98,11 C23.8,11.17 23.72,11.37 23.72,11.6 Z" id="Shape"></path>
        </g>
    </g>
</svg>