<?xml version="1.0" encoding="UTF-8"?>
<svg width="22px" height="17px" viewBox="0 0 22 17" version="1.1" xmlns="http://www.w3.org/2000/svg" xmlns:xlink="http://www.w3.org/1999/xlink">
    <!-- Generator: Sketch 50.2 (55047) - http://www.bohemiancoding.com/sketch -->
    <title>02n</title>
    <desc>Created with Sketch.</desc>
    <defs></defs>
    <g id="Page-1" stroke="none" stroke-width="1" fill="none" fill-rule="evenodd">
        <g id="02n" fill="#FFFFFF" fill-rule="nonzero">
            <path d="M0.14,11.9 C0.14,10.74 0.49,9.72 1.2,8.82 C1.91,7.92 2.82,7.35 3.94,7.1 C4.17,6.07 4.64,5.17 5.34,4.4 C6.04,3.63 6.89,3.08 7.87,2.75 C8.49,2.54 9.13,2.43 9.8,2.43 C10.61,2.43 11.4,2.59 12.15,2.91 C12.43,2.44 12.76,2.03 13.14,1.69 C13.52,1.35 13.91,1.08 14.31,0.9 C14.71,0.72 15.11,0.58 15.49,0.49 C15.87,0.4 16.25,0.36 16.61,0.36 C16.99,0.36 17.4,0.41 17.84,0.52 L18.66,0.77 C18.8,0.83 18.84,0.9 18.8,0.99 L18.66,1.59 C18.59,1.9 18.56,2.19 18.56,2.45 C18.56,2.76 18.61,3.08 18.71,3.4 C18.81,3.72 18.95,4.03 19.15,4.34 C19.34,4.65 19.61,4.92 19.95,5.17 C20.29,5.42 20.67,5.61 21.1,5.74 L21.72,5.96 C21.82,5.99 21.87,6.04 21.87,6.12 C21.87,6.14 21.86,6.16 21.85,6.19 L21.67,6.86 C21.4,7.94 20.89,8.79 20.17,9.43 C20.57,10.13 20.79,10.88 20.82,11.67 C20.83,11.72 20.83,11.79 20.83,11.9 C20.83,12.79 20.61,13.62 20.16,14.38 C19.72,15.14 19.11,15.74 18.36,16.18 C17.6,16.62 16.77,16.85 15.88,16.85 L5.07,16.85 C4.18,16.85 3.35,16.63 2.59,16.18 C1.83,15.73 1.24,15.13 0.8,14.38 C0.36,13.63 0.14,12.8 0.14,11.9 Z M1.85,11.9 C1.85,12.79 2.17,13.56 2.81,14.21 C3.45,14.86 4.2,15.19 5.07,15.19 L15.88,15.19 C16.77,15.19 17.53,14.87 18.16,14.22 C18.79,13.57 19.11,12.8 19.11,11.9 C19.11,11.02 18.79,10.27 18.15,9.64 C17.51,9.01 16.75,8.69 15.87,8.69 L14.09,8.69 L13.99,7.94 C13.89,6.93 13.47,6.06 12.73,5.35 C11.99,4.64 11.11,4.24 10.1,4.15 C10.07,4.15 10.02,4.15 9.95,4.14 C9.88,4.13 9.84,4.13 9.8,4.13 C9.29,4.13 8.78,4.23 8.26,4.42 L8.26,4.4 C7.53,4.68 6.91,5.14 6.42,5.77 C5.92,6.4 5.62,7.12 5.52,7.94 L5.45,8.66 L4.77,8.69 C3.93,8.79 3.23,9.14 2.67,9.75 C2.11,10.36 1.85,11.07 1.85,11.9 Z M13.6,3.79 C14.66,4.7 15.32,5.76 15.57,6.97 L15.89,6.97 C17.13,6.97 18.19,7.36 19.06,8.15 C19.39,7.84 19.64,7.48 19.82,7.08 C18.91,6.65 18.19,5.99 17.66,5.11 C17.14,4.23 16.87,3.3 16.87,2.33 L16.87,2.09 C16.82,2.08 16.74,2.08 16.63,2.08 C16.05,2.07 15.48,2.21 14.93,2.52 C14.38,2.82 13.93,3.24 13.6,3.79 Z" id="Shape"></path>
        </g>
    </g>
</svg>