<?xml version="1.0" encoding="UTF-8"?>
<svg width="22px" height="15px" viewBox="0 0 22 15" version="1.1" xmlns="http://www.w3.org/2000/svg" xmlns:xlink="http://www.w3.org/1999/xlink">
    <!-- Generator: Sketch 50.2 (55047) - http://www.bohemiancoding.com/sketch -->
    <title>03n</title>
    <desc>Created with Sketch.</desc>
    <defs></defs>
    <g id="Page-1" stroke="none" stroke-width="1" fill="none" fill-rule="evenodd">
        <g id="03n" fill="#FFFFFF" fill-rule="nonzero">
            <path d="M0.61,9.88 C0.61,8.73 0.97,7.71 1.69,6.81 C2.41,5.91 3.32,5.33 4.43,5.08 C4.74,3.71 5.45,2.59 6.54,1.71 C7.63,0.83 8.89,0.39 10.3,0.39 C11.68,0.39 12.91,0.82 13.99,1.67 C15.07,2.52 15.77,3.62 16.09,4.96 L16.42,4.96 C17.32,4.96 18.15,5.18 18.91,5.61 C19.67,6.04 20.28,6.64 20.72,7.4 C21.16,8.16 21.39,8.98 21.39,9.88 C21.39,10.76 21.18,11.58 20.76,12.33 C20.34,13.08 19.76,13.68 19.03,14.13 C18.3,14.58 17.49,14.82 16.62,14.85 L5.41,14.85 C4.07,14.79 2.94,14.28 2.01,13.32 C1.08,12.37 0.61,11.22 0.61,9.88 Z M2.32,9.88 C2.32,10.75 2.62,11.5 3.22,12.14 C3.82,12.78 4.55,13.12 5.41,13.17 L16.6,13.17 C17.46,13.13 18.19,12.78 18.79,12.14 C19.4,11.5 19.7,10.74 19.7,9.88 C19.7,9 19.37,8.25 18.72,7.61 C18.07,6.97 17.3,6.65 16.4,6.65 L14.8,6.65 C14.69,6.65 14.63,6.59 14.63,6.47 L14.56,5.9 C14.45,4.82 13.98,3.91 13.16,3.18 C12.34,2.45 11.39,2.08 10.3,2.08 C9.21,2.08 8.25,2.45 7.45,3.18 C6.64,3.91 6.18,4.82 6.08,5.9 L6,6.47 C6,6.59 5.93,6.65 5.8,6.65 L5.27,6.65 C4.43,6.75 3.73,7.11 3.17,7.72 C2.61,8.33 2.32,9.05 2.32,9.88 Z" id="Shape"></path>
        </g>
    </g>
</svg>