<?xml version="1.0" encoding="UTF-8"?>
<svg width="24px" height="15px" viewBox="0 0 24 15" version="1.1" xmlns="http://www.w3.org/2000/svg" xmlns:xlink="http://www.w3.org/1999/xlink">
    <!-- Generator: Sketch 50.2 (55047) - http://www.bohemiancoding.com/sketch -->
    <title>04n</title>
    <desc>Created with Sketch.</desc>
    <defs></defs>
    <g id="Page-1" stroke="none" stroke-width="1" fill="none" fill-rule="evenodd">
        <g id="04n" fill="#FFFFFF" fill-rule="nonzero">
            <path d="M0.89,10.6 C0.89,9.61 1.2,8.72 1.82,7.95 C2.44,7.18 3.23,6.68 4.2,6.46 C4.46,5.29 5.05,4.32 5.98,3.58 C6.91,2.83 7.98,2.46 9.2,2.46 C10.38,2.46 11.44,2.82 12.36,3.55 C13.29,4.28 13.89,5.21 14.16,6.35 L14.43,6.35 C15.61,6.35 16.61,6.76 17.44,7.59 C18.27,8.42 18.69,9.42 18.69,10.59 C18.69,11.77 18.27,12.77 17.44,13.6 C16.61,14.43 15.61,14.85 14.43,14.85 L5.16,14.85 C4.58,14.85 4.03,14.74 3.51,14.51 C2.99,14.28 2.52,14 2.14,13.62 C1.76,13.24 1.46,12.78 1.23,12.26 C1,11.74 0.89,11.17 0.89,10.6 Z M2.34,10.6 C2.34,11.36 2.62,12.02 3.16,12.56 C3.7,13.1 4.37,13.38 5.15,13.38 L14.43,13.38 C15.2,13.38 15.87,13.11 16.42,12.56 C16.97,12.01 17.25,11.36 17.25,10.6 C17.25,9.84 16.98,9.18 16.42,8.64 C15.87,8.1 15.21,7.82 14.43,7.82 L13.04,7.82 C12.94,7.82 12.89,7.77 12.89,7.67 L12.82,7.18 C12.72,6.24 12.32,5.45 11.63,4.83 C10.94,4.21 10.12,3.9 9.18,3.9 C8.24,3.9 7.42,4.21 6.72,4.84 C6.02,5.46 5.63,6.25 5.54,7.18 L5.47,7.6 C5.47,7.7 5.42,7.75 5.31,7.75 L4.86,7.82 C4.14,7.88 3.54,8.18 3.05,8.71 C2.59,9.24 2.34,9.87 2.34,10.6 Z M11.19,1.88 C11.09,1.97 11.11,2.04 11.26,2.09 C11.69,2.28 12.05,2.46 12.34,2.64 C12.45,2.67 12.53,2.66 12.56,2.61 C13.17,2.04 13.87,1.75 14.68,1.75 C15.49,1.75 16.18,2.02 16.78,2.56 C17.37,3.1 17.7,3.77 17.77,4.56 L17.86,5.2 L19.28,5.2 C19.93,5.2 20.49,5.43 20.96,5.9 C21.43,6.37 21.66,6.92 21.66,7.56 C21.66,8.16 21.45,8.68 21.04,9.13 C20.63,9.58 20.12,9.83 19.51,9.9 C19.41,9.9 19.36,9.95 19.36,10.06 L19.36,11.19 C19.36,11.3 19.41,11.35 19.51,11.35 C20.52,11.29 21.37,10.89 22.06,10.16 C22.75,9.43 23.1,8.56 23.1,7.56 C23.1,6.5 22.73,5.6 21.98,4.86 C21.23,4.11 20.33,3.74 19.28,3.74 L19.13,3.74 C18.87,2.74 18.32,1.92 17.48,1.27 C16.65,0.62 15.71,0.3 14.68,0.3 C13.28,0.29 12.11,0.82 11.19,1.88 Z" id="Shape"></path>
        </g>
    </g>
</svg>