<?xml version="1.0" encoding="UTF-8"?>
<svg width="28px" height="28px" viewBox="0 0 28 28" version="1.1" xmlns="http://www.w3.org/2000/svg" xmlns:xlink="http://www.w3.org/1999/xlink">
    <!-- Generator: Sketch 50.2 (55047) - http://www.bohemiancoding.com/sketch -->
    <title>09d</title>
    <desc>Created with Sketch.</desc>
    <defs></defs>
    <g id="Page-1" stroke="none" stroke-width="1" fill="none" fill-rule="evenodd">
        <g id="09d" fill="#FFFFFF" fill-rule="nonzero">
            <path d="M0.48,16.95 C0.48,18.27 0.94,19.41 1.85,20.35 C2.76,21.29 3.89,21.8 5.23,21.86 C5.35,21.86 5.41,21.8 5.41,21.69 L5.41,20.36 C5.41,20.24 5.35,20.18 5.23,20.18 C4.37,20.14 3.65,19.8 3.06,19.18 C2.47,18.56 2.18,17.81 2.18,16.94 C2.18,16.1 2.46,15.36 3.02,14.75 C3.58,14.13 4.28,13.79 5.12,13.72 L5.65,13.64 C5.76,13.64 5.81,13.59 5.81,13.5 L5.89,12.95 C6.01,11.86 6.48,10.95 7.27,10.23 C8.06,9.51 9,9.16 10.1,9.16 C11.2,9.16 12.15,9.52 12.96,10.24 C13.78,10.96 14.24,11.86 14.34,12.93 L14.41,13.51 C14.43,13.62 14.51,13.68 14.63,13.68 L16.23,13.68 C17.12,13.68 17.88,14 18.52,14.64 C19.16,15.28 19.48,16.05 19.48,16.95 C19.48,17.82 19.19,18.56 18.6,19.19 C18.01,19.82 17.29,20.14 16.43,20.19 C16.3,20.19 16.23,20.25 16.23,20.37 L16.23,21.7 C16.23,21.81 16.3,21.87 16.43,21.87 C17.76,21.83 18.88,21.33 19.8,20.38 C20.71,19.43 21.17,18.29 21.17,16.96 C21.17,16.28 21.04,15.62 20.79,14.95 C21.57,13.99 21.95,12.87 21.95,11.6 C21.95,10.89 21.81,10.22 21.54,9.57 C21.27,8.92 20.89,8.37 20.42,7.9 C19.95,7.43 19.39,7.06 18.75,6.78 C18.11,6.5 17.42,6.36 16.71,6.36 C15.17,6.36 13.88,6.94 12.85,8.1 C11.96,7.66 11.04,7.44 10.11,7.44 C8.7,7.44 7.45,7.88 6.37,8.75 C5.29,9.62 4.6,10.75 4.29,12.13 C3.17,12.39 2.25,12.96 1.54,13.86 C0.83,14.76 0.48,15.79 0.48,16.95 Z M5.83,23.98 C5.83,24.15 5.88,24.32 5.99,24.49 C6.1,24.66 6.26,24.77 6.46,24.84 C6.69,24.91 6.91,24.9 7.1,24.8 C7.3,24.71 7.43,24.52 7.5,24.24 L7.64,23.63 C7.69,23.4 7.66,23.19 7.54,23 C7.42,22.8 7.25,22.67 7.02,22.6 C6.79,22.53 6.58,22.56 6.38,22.68 C6.18,22.8 6.06,22.97 6,23.2 L5.86,23.79 C5.84,23.85 5.83,23.91 5.83,23.98 Z M6.6,21.08 C6.6,21.3 6.68,21.49 6.84,21.65 C7,21.83 7.19,21.91 7.4,21.91 C7.64,21.91 7.84,21.83 8,21.67 C8.17,21.51 8.25,21.32 8.25,21.08 C8.25,20.85 8.17,20.65 8,20.49 C7.83,20.33 7.63,20.25 7.4,20.25 C7.17,20.25 6.98,20.33 6.82,20.48 C6.66,20.63 6.6,20.85 6.6,21.08 Z M7.21,18.81 C7.2,18.97 7.24,19.12 7.34,19.26 C7.44,19.41 7.6,19.51 7.82,19.58 C8.03,19.64 8.23,19.62 8.44,19.51 C8.65,19.4 8.79,19.23 8.86,19 L9.13,18.1 C9.2,17.86 9.18,17.64 9.06,17.45 C8.94,17.26 8.76,17.13 8.52,17.06 C8.3,16.99 8.09,17.01 7.89,17.13 C7.69,17.24 7.55,17.41 7.48,17.63 L7.24,18.55 C7.22,18.71 7.21,18.8 7.21,18.81 Z M8.36,27.1 C8.36,27.27 8.41,27.43 8.52,27.59 C8.63,27.75 8.79,27.86 9.01,27.92 C9.1,27.94 9.18,27.95 9.25,27.95 C9.68,27.95 9.95,27.75 10.05,27.34 L10.18,26.75 C10.24,26.49 10.21,26.27 10.1,26.07 C9.99,25.87 9.81,25.75 9.58,25.7 C9.37,25.63 9.16,25.65 8.95,25.77 C8.74,25.89 8.61,26.06 8.54,26.28 L8.4,26.88 C8.37,26.99 8.36,27.07 8.36,27.1 Z M8.92,4.66 C8.92,4.9 9,5.1 9.16,5.26 L9.82,5.9 C9.96,6.06 10.14,6.14 10.36,6.16 C10.58,6.18 10.79,6.09 10.98,5.9 C11.14,5.74 11.22,5.54 11.22,5.31 C11.22,5.07 11.14,4.87 10.98,4.71 L10.35,4.06 C10.2,3.9 10,3.82 9.77,3.8 C9.54,3.8 9.34,3.88 9.17,4.05 C9.01,4.22 8.92,4.42 8.92,4.66 Z M9.15,24.2 C9.15,24.43 9.23,24.62 9.39,24.78 C9.55,24.94 9.75,25.02 9.97,25.02 C10.21,25.02 10.4,24.94 10.56,24.79 C10.72,24.63 10.79,24.44 10.79,24.2 C10.79,23.97 10.71,23.78 10.56,23.62 C10.4,23.46 10.21,23.39 9.97,23.39 C9.73,23.39 9.54,23.47 9.38,23.62 C9.22,23.77 9.15,23.97 9.15,24.2 Z M9.77,21.93 C9.76,22.08 9.8,22.24 9.91,22.4 C10.01,22.56 10.16,22.66 10.36,22.7 C10.59,22.76 10.8,22.74 11,22.64 C11.2,22.54 11.33,22.35 11.41,22.08 L11.67,21.18 C11.74,20.96 11.72,20.75 11.6,20.55 C11.48,20.35 11.31,20.22 11.07,20.15 C10.85,20.08 10.64,20.11 10.43,20.23 C10.22,20.35 10.09,20.53 10.02,20.76 L9.8,21.66 C9.78,21.74 9.77,21.83 9.77,21.93 Z M12.53,24.08 C12.53,24.25 12.58,24.41 12.68,24.56 C12.78,24.71 12.93,24.82 13.14,24.88 C13.17,24.88 13.22,24.89 13.28,24.9 C13.34,24.91 13.39,24.92 13.42,24.92 C13.83,24.92 14.08,24.7 14.18,24.26 L14.32,23.66 C14.39,23.45 14.37,23.24 14.25,23.03 C14.13,22.82 13.96,22.69 13.74,22.62 C13.49,22.56 13.26,22.58 13.06,22.7 C12.86,22.82 12.72,22.99 12.65,23.23 L12.56,23.82 C12.56,23.83 12.56,23.87 12.55,23.93 C12.54,24 12.53,24.04 12.53,24.08 Z M13.27,21.12 C13.27,21.35 13.35,21.54 13.51,21.69 C13.66,21.85 13.85,21.93 14.09,21.93 C14.33,21.93 14.52,21.85 14.68,21.7 C14.84,21.54 14.91,21.35 14.91,21.12 C14.91,20.88 14.83,20.69 14.68,20.53 C14.52,20.37 14.33,20.3 14.09,20.3 C13.85,20.3 13.66,20.38 13.5,20.53 C13.34,20.68 13.27,20.88 13.27,21.12 Z M13.88,18.81 C13.88,18.98 13.93,19.14 14.04,19.29 C14.15,19.44 14.31,19.55 14.53,19.61 C14.55,19.61 14.59,19.62 14.65,19.63 C14.71,19.64 14.76,19.65 14.79,19.65 C14.9,19.65 15.02,19.62 15.16,19.56 C15.37,19.45 15.5,19.28 15.56,19.04 L15.8,18.14 C15.86,17.91 15.84,17.7 15.73,17.51 C15.62,17.32 15.45,17.18 15.23,17.11 C15,17.04 14.78,17.06 14.59,17.17 C14.39,17.28 14.26,17.44 14.19,17.68 L13.91,18.59 C13.91,18.61 13.91,18.64 13.9,18.7 C13.89,18.73 13.88,18.77 13.88,18.81 Z M14.23,9.09 C14.89,8.43 15.71,8.1 16.7,8.1 C17.69,8.1 18.53,8.44 19.22,9.12 C19.91,9.8 20.26,10.62 20.26,11.6 C20.26,12.26 20.08,12.89 19.73,13.48 C18.75,12.5 17.58,12.01 16.23,12.01 L15.92,12.01 C15.64,10.91 15.07,9.94 14.23,9.09 Z M15.88,3.83 C15.88,4.06 15.96,4.25 16.11,4.41 C16.26,4.56 16.46,4.64 16.7,4.64 C16.94,4.64 17.15,4.56 17.32,4.41 C17.49,4.26 17.57,4.06 17.57,3.83 L17.57,1.76 C17.57,1.53 17.48,1.33 17.31,1.16 C17.14,0.99 16.93,0.91 16.7,0.91 C16.47,0.91 16.27,0.99 16.12,1.16 C15.96,1.33 15.89,1.53 15.89,1.76 L15.89,3.83 L15.88,3.83 Z M21.4,6.09 C21.4,6.34 21.48,6.54 21.63,6.69 C21.99,7.05 22.39,7.05 22.84,6.69 L24.27,5.26 C24.44,5.09 24.52,4.88 24.52,4.63 C24.52,4.39 24.44,4.19 24.27,4.03 C24.1,3.86 23.9,3.78 23.67,3.78 C23.44,3.78 23.24,3.86 23.06,4.02 L21.63,5.5 C21.48,5.65 21.4,5.84 21.4,6.09 Z M22.18,17.94 C22.18,18.17 22.27,18.37 22.45,18.53 L23.06,19.16 C23.26,19.32 23.46,19.4 23.67,19.4 C23.87,19.4 24.07,19.32 24.27,19.16 C24.44,19 24.52,18.81 24.52,18.57 C24.52,18.34 24.44,18.14 24.27,17.95 L23.62,17.34 C23.47,17.17 23.28,17.09 23.05,17.09 C22.82,17.09 22.62,17.17 22.45,17.34 C22.27,17.51 22.18,17.71 22.18,17.94 Z M23.66,11.6 C23.66,11.84 23.75,12.03 23.92,12.19 C24.1,12.37 24.31,12.46 24.54,12.46 L26.57,12.46 C26.8,12.46 27,12.38 27.16,12.21 C27.32,12.04 27.4,11.84 27.4,11.6 C27.4,11.36 27.32,11.16 27.16,11 C27,10.83 26.81,10.75 26.57,10.75 L24.54,10.75 C24.3,10.75 24.1,10.83 23.92,11 C23.74,11.17 23.66,11.37 23.66,11.6 Z" id="Shape"></path>
        </g>
    </g>
</svg>