<?xml version="1.0" encoding="UTF-8"?>
<svg width="22px" height="23px" viewBox="0 0 22 23" version="1.1" xmlns="http://www.w3.org/2000/svg" xmlns:xlink="http://www.w3.org/1999/xlink">
    <!-- Generator: Sketch 50.2 (55047) - http://www.bohemiancoding.com/sketch -->
    <title>09n</title>
    <desc>Created with Sketch.</desc>
    <defs></defs>
    <g id="Page-1" stroke="none" stroke-width="1" fill="none" fill-rule="evenodd">
        <g id="09n" fill="#FFFFFF" fill-rule="nonzero">
            <path d="M0.07,11.91 C0.07,13.24 0.53,14.39 1.46,15.34 C2.39,16.29 3.52,16.81 4.86,16.87 C4.97,16.87 5.03,16.81 5.03,16.7 L5.03,15.33 C5.03,15.21 4.97,15.15 4.86,15.15 C3.99,15.08 3.26,14.74 2.67,14.11 C2.08,13.49 1.78,12.75 1.78,11.9 C1.78,11.07 2.06,10.36 2.62,9.74 C3.18,9.12 3.88,8.77 4.72,8.67 L5.25,8.6 C5.38,8.6 5.45,8.54 5.45,8.43 L5.52,7.91 C5.63,6.83 6.08,5.92 6.89,5.2 C7.7,4.47 8.65,4.11 9.74,4.11 C10.83,4.11 11.78,4.47 12.59,5.2 C13.4,5.92 13.87,6.83 13.98,7.92 L14.06,8.5 C14.06,8.62 14.12,8.68 14.24,8.68 L15.85,8.68 C16.75,8.68 17.52,9 18.17,9.63 C18.81,10.26 19.14,11.02 19.14,11.91 C19.14,12.76 18.84,13.5 18.25,14.12 C17.66,14.74 16.92,15.09 16.06,15.16 C15.93,15.16 15.86,15.22 15.86,15.34 L15.86,16.71 C15.86,16.82 15.93,16.88 16.06,16.88 C17.39,16.84 18.52,16.33 19.44,15.37 C20.36,14.41 20.82,13.26 20.82,11.92 C20.82,11.05 20.6,10.24 20.17,9.49 C20.98,8.76 21.51,7.89 21.75,6.87 L21.75,6.74 L21.94,5.95 L21.18,5.74 C20.37,5.5 19.74,5.04 19.29,4.39 C18.84,3.73 18.62,3.05 18.62,2.36 C18.62,2.1 18.65,1.84 18.7,1.58 L18.9,0.78 L18.05,0.53 L17.9,0.49 C17.43,0.4 17.02,0.35 16.65,0.35 C16.27,0.35 15.89,0.39 15.51,0.48 C15.12,0.57 14.72,0.7 14.31,0.89 C13.89,1.08 13.49,1.34 13.11,1.69 C12.73,2.04 12.39,2.45 12.11,2.92 C11.37,2.59 10.58,2.43 9.75,2.43 C8.34,2.43 7.09,2.87 6,3.74 C4.91,4.61 4.23,5.73 3.93,7.1 C2.81,7.36 1.88,7.93 1.16,8.82 C0.43,9.73 0.07,10.76 0.07,11.91 Z M5.47,18.68 C5.47,18.83 5.52,18.98 5.62,19.13 C5.72,19.28 5.87,19.39 6.07,19.46 C6.29,19.53 6.5,19.52 6.71,19.41 C6.92,19.3 7.05,19.13 7.12,18.9 L7.4,17.84 C7.47,17.63 7.45,17.43 7.33,17.22 C7.21,17.01 7.04,16.88 6.82,16.81 C6.59,16.75 6.37,16.78 6.17,16.89 C5.97,17 5.83,17.19 5.75,17.42 L5.52,18.41 C5.49,18.57 5.47,18.66 5.47,18.68 Z M6.77,13.95 C6.77,14.06 6.8,14.18 6.87,14.31 C6.94,14.48 7.12,14.61 7.4,14.69 C7.64,14.75 7.86,14.73 8.06,14.63 C8.25,14.53 8.39,14.35 8.46,14.11 L8.74,13.08 C8.81,12.85 8.79,12.63 8.67,12.44 C8.55,12.24 8.38,12.11 8.16,12.05 C7.92,11.99 7.69,12.01 7.49,12.12 C7.29,12.23 7.16,12.4 7.09,12.64 L6.82,13.65 C6.79,13.78 6.77,13.88 6.77,13.95 Z M8.02,21.8 C8.02,21.97 8.07,22.13 8.17,22.29 C8.27,22.45 8.42,22.56 8.62,22.62 C8.73,22.65 8.8,22.67 8.85,22.67 C8.94,22.67 9.06,22.64 9.23,22.57 C9.43,22.49 9.57,22.3 9.66,22.02 L9.96,20.97 C10.03,20.76 10.01,20.55 9.89,20.34 C9.77,20.13 9.6,20 9.38,19.93 C9.14,19.87 8.91,19.89 8.71,20.01 C8.51,20.13 8.37,20.3 8.3,20.54 L8.05,21.55 C8.03,21.63 8.02,21.72 8.02,21.8 Z M9.35,17.03 C9.35,17.18 9.4,17.33 9.5,17.48 C9.6,17.63 9.75,17.74 9.96,17.81 C10.18,17.88 10.4,17.86 10.6,17.75 C10.8,17.64 10.93,17.47 11,17.23 L11.27,16.19 C11.34,15.98 11.32,15.77 11.21,15.57 C11.1,15.37 10.94,15.23 10.72,15.16 C10.48,15.1 10.25,15.13 10.04,15.24 C9.83,15.35 9.69,15.54 9.62,15.77 L9.38,16.77 L9.35,17.03 Z M12.16,18.79 C12.16,19.17 12.37,19.41 12.8,19.54 C12.89,19.56 12.97,19.57 13.04,19.57 C13.19,19.57 13.31,19.55 13.41,19.5 C13.62,19.42 13.77,19.23 13.85,18.93 L14.12,17.91 C14.18,17.66 14.16,17.44 14.04,17.24 C13.92,17.04 13.75,16.92 13.51,16.87 C13.28,16.8 13.06,16.82 12.87,16.94 C12.68,17.06 12.54,17.23 12.47,17.45 L12.2,18.49 C12.2,18.51 12.19,18.56 12.18,18.64 C12.16,18.71 12.16,18.76 12.16,18.79 Z M13.55,13.98 C13.55,14.14 13.6,14.29 13.7,14.44 C13.8,14.59 13.96,14.7 14.16,14.76 C14.3,14.79 14.38,14.81 14.39,14.81 C14.48,14.81 14.6,14.78 14.77,14.71 C14.98,14.63 15.12,14.44 15.21,14.16 L15.49,13.12 C15.55,12.9 15.52,12.69 15.41,12.49 C15.3,12.29 15.11,12.16 14.88,12.09 C14.66,12.02 14.45,12.04 14.25,12.16 C14.05,12.28 13.92,12.45 13.85,12.68 L13.59,13.74 C13.56,13.83 13.55,13.92 13.55,13.98 Z M13.58,3.81 C13.9,3.25 14.34,2.81 14.91,2.5 C15.48,2.19 16.08,2.03 16.72,2.03 L16.93,2.03 C16.92,2.12 16.92,2.24 16.92,2.41 C16.92,3.36 17.18,4.26 17.7,5.12 C18.22,5.98 18.95,6.63 19.87,7.08 C19.65,7.51 19.39,7.88 19.09,8.18 C18.16,7.37 17.07,6.97 15.84,6.97 L15.52,6.97 C15.27,5.78 14.63,4.73 13.58,3.81 Z" id="Shape"></path>
        </g>
    </g>
</svg>