<?xml version="1.0" encoding="UTF-8"?>
<svg width="28px" height="28px" viewBox="0 0 28 28" version="1.1" xmlns="http://www.w3.org/2000/svg" xmlns:xlink="http://www.w3.org/1999/xlink">
    <!-- Generator: Sketch 50.2 (55047) - http://www.bohemiancoding.com/sketch -->
    <title>10d</title>
    <desc>Created with Sketch.</desc>
    <defs></defs>
    <g id="Page-1" stroke="none" stroke-width="1" fill="none" fill-rule="evenodd">
        <g id="10d" fill="#FFFFFF" fill-rule="nonzero">
            <path d="M0.51,16.89 C0.51,18.22 0.97,19.37 1.9,20.33 C2.83,21.29 3.96,21.8 5.31,21.86 C5.42,21.86 5.48,21.8 5.48,21.69 L5.48,20.35 C5.48,20.24 5.42,20.18 5.31,20.18 C4.45,20.14 3.72,19.79 3.12,19.15 C2.52,18.51 2.22,17.75 2.22,16.89 C2.22,16.07 2.5,15.35 3.07,14.73 C3.64,14.11 4.34,13.76 5.17,13.66 L5.7,13.61 C5.83,13.61 5.9,13.55 5.9,13.44 L5.97,12.9 C6.08,11.82 6.53,10.91 7.34,10.18 C8.15,9.45 9.1,9.08 10.19,9.08 C11.28,9.08 12.23,9.45 13.05,10.18 C13.87,10.91 14.33,11.82 14.45,12.9 L14.52,13.47 C14.52,13.59 14.58,13.66 14.69,13.66 L16.31,13.66 C17.2,13.66 17.96,13.98 18.61,14.62 C19.26,15.26 19.58,16.01 19.58,16.89 C19.58,17.76 19.28,18.51 18.68,19.15 C18.08,19.79 17.35,20.13 16.5,20.18 C16.38,20.18 16.31,20.24 16.31,20.35 L16.31,21.69 C16.31,21.8 16.37,21.86 16.5,21.86 C17.83,21.82 18.96,21.31 19.89,20.35 C20.82,19.38 21.28,18.23 21.28,16.9 C21.28,16.18 21.14,15.51 20.86,14.89 C21.64,13.92 22.03,12.82 22.03,11.58 C22.03,10.63 21.79,9.75 21.32,8.94 C20.85,8.13 20.21,7.49 19.4,7.02 C18.59,6.55 17.72,6.32 16.78,6.32 C15.22,6.32 13.93,6.9 12.9,8.06 C12.08,7.62 11.18,7.4 10.19,7.4 C8.78,7.4 7.52,7.84 6.43,8.72 C5.34,9.6 4.64,10.72 4.33,12.08 C3.22,12.34 2.31,12.92 1.59,13.82 C0.87,14.72 0.51,15.74 0.51,16.89 Z M5.91,23.75 C5.91,23.92 5.96,24.08 6.07,24.24 C6.18,24.4 6.34,24.51 6.56,24.57 C6.67,24.59 6.76,24.61 6.83,24.61 C7.22,24.61 7.48,24.4 7.6,23.97 L9.18,18.09 C9.25,17.85 9.22,17.63 9.1,17.42 C8.98,17.21 8.8,17.09 8.57,17.04 C8.35,16.97 8.14,16.99 7.94,17.11 C7.74,17.22 7.6,17.39 7.53,17.62 L5.95,23.53 C5.93,23.66 5.91,23.73 5.91,23.75 Z M8.52,26.83 C8.52,27.02 8.57,27.19 8.67,27.35 C8.77,27.51 8.94,27.61 9.19,27.65 C9.3,27.67 9.39,27.69 9.45,27.69 C9.61,27.69 9.76,27.63 9.9,27.52 C10.04,27.4 10.13,27.24 10.17,27.04 L12.57,18.11 C12.63,17.88 12.61,17.66 12.5,17.47 C12.39,17.28 12.22,17.14 12,17.07 C11.77,17 11.55,17.02 11.35,17.14 C11.15,17.25 11.01,17.42 10.95,17.65 L8.55,26.58 C8.53,26.73 8.52,26.82 8.52,26.83 Z M8.94,4.6 C8.94,4.84 9.02,5.04 9.19,5.21 L9.84,5.87 C10.03,6.02 10.24,6.09 10.46,6.09 C10.67,6.09 10.87,6.01 11.04,5.86 C11.21,5.7 11.3,5.51 11.3,5.27 C11.3,5.03 11.22,4.81 11.06,4.63 L10.42,3.98 C10.24,3.81 10.04,3.73 9.82,3.73 C9.58,3.73 9.37,3.82 9.2,3.99 C9.03,4.16 8.94,4.37 8.94,4.6 Z M12.67,23.77 C12.67,23.93 12.72,24.09 12.82,24.24 C12.92,24.39 13.08,24.5 13.28,24.56 C13.39,24.58 13.48,24.6 13.53,24.6 C13.7,24.6 13.87,24.55 14.02,24.45 C14.17,24.35 14.27,24.19 14.32,23.96 L15.9,18.08 C15.96,17.85 15.94,17.63 15.83,17.44 C15.72,17.24 15.55,17.11 15.33,17.04 C15.09,16.97 14.88,16.99 14.68,17.11 C14.48,17.22 14.35,17.39 14.29,17.62 L12.71,23.53 C12.69,23.68 12.67,23.76 12.67,23.77 Z M14.3,9.03 C15.01,8.36 15.83,8.03 16.78,8.03 C17.76,8.03 18.6,8.38 19.28,9.07 C19.97,9.76 20.31,10.6 20.31,11.59 C20.31,12.21 20.14,12.83 19.79,13.44 C18.82,12.47 17.66,11.99 16.3,11.99 L15.97,11.99 C15.7,10.81 15.14,9.83 14.3,9.03 Z M15.92,3.78 C15.92,4.01 16,4.21 16.17,4.37 C16.34,4.53 16.54,4.61 16.78,4.61 C17.01,4.61 17.21,4.53 17.37,4.38 C17.53,4.22 17.61,4.03 17.61,3.79 L17.61,1.73 C17.61,1.47 17.53,1.26 17.38,1.1 C17.22,0.94 17.03,0.86 16.79,0.86 C16.54,0.86 16.33,0.94 16.17,1.11 C16.01,1.28 15.93,1.48 15.93,1.73 L15.93,3.78 L15.92,3.78 Z M21.45,6.06 C21.45,6.3 21.54,6.5 21.72,6.65 C21.86,6.81 22.04,6.89 22.27,6.91 C22.5,6.93 22.71,6.84 22.89,6.65 L24.33,5.22 C24.51,5.05 24.59,4.84 24.59,4.59 C24.59,4.35 24.51,4.14 24.34,3.98 C24.17,3.82 23.97,3.74 23.73,3.74 C23.52,3.74 23.33,3.82 23.15,3.99 L21.72,5.43 C21.54,5.6 21.45,5.81 21.45,6.06 Z M22.26,17.91 C22.26,18.15 22.34,18.36 22.5,18.54 L23.15,19.17 C23.33,19.31 23.53,19.38 23.75,19.38 L23.77,19.4 C24,19.4 24.19,19.32 24.35,19.16 C24.51,19 24.59,18.79 24.59,18.55 C24.59,18.31 24.5,18.12 24.33,17.97 L23.71,17.31 C23.53,17.15 23.32,17.07 23.09,17.07 C22.86,17.07 22.66,17.15 22.5,17.32 C22.34,17.49 22.26,17.67 22.26,17.91 Z M23.72,11.58 C23.72,11.82 23.81,12.01 23.98,12.17 C24.16,12.35 24.36,12.43 24.6,12.43 L26.63,12.43 C26.87,12.43 27.07,12.35 27.24,12.18 C27.41,12.01 27.49,11.81 27.49,11.58 C27.49,11.34 27.41,11.14 27.24,10.97 C27.07,10.8 26.87,10.71 26.63,10.71 L24.6,10.71 C24.36,10.71 24.16,10.8 23.98,10.97 C23.8,11.14 23.72,11.34 23.72,11.58 Z" id="Shape"></path>
        </g>
    </g>
</svg>