<?xml version="1.0" encoding="UTF-8"?>
<svg width="22px" height="23px" viewBox="0 0 22 23" version="1.1" xmlns="http://www.w3.org/2000/svg" xmlns:xlink="http://www.w3.org/1999/xlink">
    <!-- Generator: Sketch 50.2 (55047) - http://www.bohemiancoding.com/sketch -->
    <title>10n</title>
    <desc>Created with Sketch.</desc>
    <defs></defs>
    <g id="Page-1" stroke="none" stroke-width="1" fill="none" fill-rule="evenodd">
        <g id="10n" fill="#FFFFFF" fill-rule="nonzero">
            <path d="M0.07,11.9 C0.07,13.23 0.54,14.38 1.47,15.34 C2.4,16.3 3.54,16.81 4.87,16.87 C4.99,16.87 5.05,16.81 5.05,16.7 L5.05,15.36 C5.05,15.25 4.99,15.19 4.87,15.19 C4.01,15.14 3.28,14.8 2.68,14.16 C2.08,13.52 1.78,12.77 1.78,11.9 C1.78,11.07 2.06,10.35 2.63,9.73 C3.2,9.11 3.9,8.76 4.73,8.66 L5.26,8.62 C5.39,8.62 5.46,8.56 5.46,8.45 L5.53,7.91 C5.64,6.83 6.1,5.92 6.91,5.19 C7.72,4.46 8.68,4.09 9.77,4.09 C10.86,4.09 11.81,4.46 12.63,5.19 C13.45,5.92 13.91,6.83 14.03,7.91 L14.11,8.48 C14.11,8.6 14.17,8.66 14.28,8.66 L15.9,8.66 C16.79,8.66 17.57,8.98 18.22,9.62 C18.87,10.26 19.2,11.02 19.2,11.9 C19.2,12.77 18.9,13.52 18.3,14.16 C17.7,14.8 16.97,15.14 16.11,15.19 C15.97,15.19 15.9,15.25 15.9,15.36 L15.9,16.7 C15.9,16.81 15.97,16.87 16.11,16.87 C17.44,16.83 18.57,16.32 19.49,15.36 C20.42,14.39 20.88,13.24 20.88,11.91 C20.88,11.03 20.65,10.21 20.2,9.45 C21.01,8.72 21.53,7.85 21.78,6.83 L21.92,6.11 C21.93,6.1 21.94,6.08 21.94,6.04 C21.94,5.97 21.89,5.91 21.78,5.88 L21.22,5.7 C20.65,5.54 20.16,5.26 19.76,4.87 C19.35,4.48 19.06,4.07 18.89,3.64 C18.72,3.21 18.63,2.78 18.63,2.36 C18.61,2.14 18.64,1.86 18.71,1.54 L18.85,0.93 C18.89,0.83 18.85,0.75 18.71,0.69 L17.92,0.45 C17.47,0.35 17.05,0.3 16.65,0.3 C16.27,0.3 15.89,0.34 15.51,0.43 C15.12,0.52 14.72,0.65 14.31,0.84 C13.9,1.02 13.5,1.29 13.11,1.64 C12.72,1.99 12.39,2.39 12.11,2.86 C11.29,2.56 10.51,2.41 9.78,2.41 C8.37,2.41 7.11,2.85 6.02,3.73 C4.93,4.61 4.22,5.73 3.91,7.1 C2.8,7.36 1.89,7.93 1.17,8.83 C0.43,9.72 0.07,10.75 0.07,11.9 Z M5.63,18.74 C5.63,18.91 5.68,19.07 5.79,19.23 C5.9,19.39 6.06,19.5 6.28,19.56 C6.51,19.63 6.73,19.61 6.92,19.52 C7.12,19.42 7.25,19.24 7.32,18.96 L8.75,13.09 C8.81,12.84 8.78,12.61 8.67,12.42 C8.55,12.22 8.38,12.1 8.15,12.05 C7.93,11.98 7.72,12 7.52,12.12 C7.32,12.23 7.18,12.4 7.11,12.63 L5.67,18.53 C5.67,18.54 5.66,18.57 5.65,18.62 C5.64,18.67 5.63,18.71 5.63,18.74 Z M8.24,21.81 C8.24,21.97 8.29,22.12 8.39,22.27 C8.49,22.42 8.64,22.52 8.84,22.58 C8.95,22.61 9.03,22.62 9.08,22.62 C9.52,22.62 9.79,22.42 9.9,22.03 L12.15,13.1 C12.21,12.86 12.19,12.64 12.08,12.45 C11.97,12.26 11.8,12.13 11.58,12.06 C11.35,11.99 11.13,12.01 10.92,12.13 C10.71,12.25 10.58,12.41 10.53,12.63 L8.27,21.55 C8.27,21.56 8.27,21.6 8.26,21.67 C8.24,21.73 8.24,21.78 8.24,21.81 Z M12.4,18.82 C12.4,19.18 12.61,19.42 13.03,19.56 C13.17,19.6 13.27,19.62 13.33,19.62 C13.44,19.62 13.56,19.6 13.68,19.55 C13.89,19.47 14.02,19.27 14.07,18.97 L15.5,13.1 C15.56,12.86 15.54,12.65 15.42,12.45 C15.31,12.26 15.14,12.13 14.91,12.06 C14.68,11.99 14.46,12.01 14.25,12.13 C14.04,12.24 13.92,12.41 13.87,12.64 L12.44,18.54 C12.42,18.7 12.4,18.8 12.4,18.82 Z M13.58,3.77 C13.9,3.19 14.33,2.75 14.89,2.44 C15.44,2.14 16.03,1.99 16.65,2 C16.77,2 16.86,2 16.92,2.01 L16.92,2.31 C16.91,3.28 17.16,4.19 17.69,5.06 C18.21,5.92 18.95,6.58 19.9,7.03 C19.68,7.49 19.41,7.84 19.11,8.1 C18.19,7.34 17.12,6.97 15.88,6.97 L15.57,6.97 C15.3,5.7 14.64,4.64 13.58,3.77 Z" id="Shape"></path>
        </g>
    </g>
</svg>