<?xml version="1.0" encoding="UTF-8"?>
<svg width="28px" height="29px" viewBox="0 0 28 29" version="1.1" xmlns="http://www.w3.org/2000/svg" xmlns:xlink="http://www.w3.org/1999/xlink">
    <!-- Generator: Sketch 50.2 (55047) - http://www.bohemiancoding.com/sketch -->
    <title>11d</title>
    <desc>Created with Sketch.</desc>
    <defs></defs>
    <g id="Page-1" stroke="none" stroke-width="1" fill="none" fill-rule="evenodd">
        <g id="11d" fill="#FFFFFF" fill-rule="nonzero">
            <path d="M0.56,16.9 C0.56,18.23 1.02,19.37 1.95,20.33 C2.88,21.29 4.01,21.8 5.35,21.86 C5.46,21.86 5.52,21.8 5.52,21.69 L5.52,20.32 C5.52,20.2 5.46,20.14 5.35,20.14 C4.48,20.07 3.75,19.73 3.16,19.1 C2.57,18.48 2.27,17.74 2.27,16.89 C2.27,16.05 2.55,15.32 3.12,14.7 C3.69,14.08 4.38,13.73 5.22,13.66 L5.74,13.58 C5.87,13.58 5.94,13.52 5.94,13.41 L6,12.9 C6.11,11.82 6.56,10.91 7.37,10.19 C8.18,9.46 9.13,9.1 10.23,9.1 C11.32,9.1 12.27,9.46 13.08,10.19 C13.89,10.91 14.35,11.82 14.47,12.91 L14.54,13.49 C14.54,13.6 14.6,13.66 14.73,13.66 L16.33,13.66 C17.24,13.66 18.01,13.98 18.65,14.61 C19.29,15.24 19.61,16 19.61,16.89 C19.61,17.74 19.31,18.48 18.72,19.1 C18.13,19.72 17.4,20.07 16.53,20.14 C16.4,20.14 16.33,20.2 16.33,20.32 L16.33,21.69 C16.33,21.8 16.4,21.86 16.53,21.86 C17.86,21.82 18.99,21.31 19.91,20.35 C20.83,19.39 21.29,18.24 21.29,16.9 C21.29,16.22 21.13,15.53 20.82,14.83 C21.6,13.89 22,12.8 22,11.56 C22,10.85 21.86,10.17 21.58,9.52 C21.3,8.87 20.93,8.32 20.46,7.85 C19.99,7.38 19.43,7.01 18.79,6.73 C18.14,6.46 17.47,6.32 16.76,6.32 C15.22,6.32 13.92,6.9 12.88,8.05 C12.02,7.64 11.14,7.43 10.23,7.43 C8.81,7.43 7.56,7.86 6.47,8.73 C5.38,9.6 4.68,10.72 4.37,12.1 C3.27,12.36 2.36,12.93 1.64,13.83 C0.92,14.73 0.56,15.75 0.56,16.9 Z M8.06,28.17 L8.36,28.17 L13.68,20.32 C13.72,20.28 13.73,20.23 13.7,20.18 C13.67,20.13 13.63,20.11 13.56,20.11 L11.38,20.11 L13.68,15.9 C13.75,15.76 13.71,15.68 13.54,15.68 L10.6,15.68 C10.52,15.68 10.45,15.73 10.38,15.82 L8.22,21.54 C8.2,21.68 8.24,21.75 8.36,21.75 L10.53,21.75 L8.06,28.17 Z M8.94,4.59 C8.94,4.84 9.02,5.05 9.18,5.21 L9.84,5.86 C10.26,6.18 10.66,6.18 11.05,5.86 C11.21,5.68 11.29,5.47 11.29,5.22 C11.29,4.99 11.21,4.79 11.05,4.63 L10.41,3.98 C10.22,3.81 10.02,3.73 9.79,3.73 C9.56,3.73 9.36,3.81 9.19,3.98 C9.02,4.15 8.94,4.36 8.94,4.59 Z M14.28,9.02 C14.96,8.34 15.79,8 16.76,8 C17.74,8 18.57,8.35 19.25,9.04 C19.94,9.73 20.28,10.57 20.28,11.56 C20.28,12.17 20.11,12.77 19.77,13.37 C18.79,12.43 17.64,11.96 16.31,11.96 L16,11.96 C15.74,10.82 15.16,9.84 14.28,9.02 Z M15.9,3.73 C15.9,3.98 15.98,4.19 16.14,4.35 C16.3,4.51 16.5,4.59 16.75,4.59 C16.99,4.59 17.18,4.51 17.34,4.35 C17.5,4.19 17.57,3.98 17.57,3.73 L17.57,1.69 C17.57,1.45 17.49,1.26 17.34,1.1 C17.18,0.94 16.99,0.87 16.75,0.87 C16.51,0.87 16.31,0.95 16.15,1.1 C15.99,1.25 15.9,1.45 15.9,1.69 L15.9,3.73 Z M21.42,6.05 C21.42,6.28 21.51,6.48 21.69,6.65 C21.87,6.82 22.06,6.9 22.24,6.9 C22.4,6.9 22.61,6.82 22.86,6.65 L24.3,5.22 C24.47,5.04 24.55,4.83 24.55,4.59 C24.55,4.35 24.47,4.14 24.3,3.98 C24.13,3.82 23.93,3.74 23.7,3.74 C23.48,3.74 23.29,3.82 23.12,3.99 L21.69,5.42 C21.51,5.61 21.42,5.82 21.42,6.05 Z M22.23,17.87 C22.23,18.1 22.31,18.3 22.47,18.48 L23.12,19.14 C23.28,19.3 23.48,19.38 23.7,19.38 C23.94,19.38 24.14,19.3 24.3,19.13 C24.47,18.96 24.55,18.75 24.55,18.5 C24.55,18.27 24.47,18.08 24.3,17.93 L23.68,17.27 C23.49,17.11 23.29,17.04 23.06,17.04 C22.83,17.04 22.63,17.12 22.47,17.28 C22.31,17.44 22.23,17.64 22.23,17.87 Z M23.68,11.56 C23.68,11.78 23.77,11.97 23.94,12.13 C24.11,12.3 24.31,12.38 24.54,12.38 L26.58,12.38 C26.82,12.38 27.02,12.3 27.19,12.14 C27.36,11.98 27.44,11.79 27.44,11.55 C27.44,11.31 27.35,11.11 27.18,10.94 C27.01,10.77 26.81,10.69 26.58,10.69 L24.54,10.69 C24.31,10.69 24.11,10.77 23.94,10.94 C23.77,11.12 23.68,11.32 23.68,11.56 Z" id="Shape"></path>
        </g>
    </g>
</svg>