<?xml version="1.0" encoding="UTF-8"?>
<svg width="22px" height="20px" viewBox="0 0 22 20" version="1.1" xmlns="http://www.w3.org/2000/svg" xmlns:xlink="http://www.w3.org/1999/xlink">
    <!-- Generator: Sketch 50.2 (55047) - http://www.bohemiancoding.com/sketch -->
    <title>11n</title>
    <desc>Created with Sketch.</desc>
    <defs></defs>
    <g id="Page-1" stroke="none" stroke-width="1" fill="none" fill-rule="evenodd">
        <g id="11n" fill="#FFFFFF" fill-rule="nonzero">
            <path d="M0.29,10.93 C0.29,11.59 0.41,12.21 0.67,12.81 C0.93,13.41 1.26,13.92 1.69,14.36 C2.12,14.8 2.63,15.15 3.21,15.41 C3.79,15.67 4.42,15.83 5.08,15.86 C5.2,15.86 5.26,15.8 5.26,15.69 L5.26,14.35 C5.26,14.24 5.2,14.18 5.08,14.18 C4.21,14.12 3.48,13.77 2.89,13.15 C2.3,12.53 2,11.78 2,10.93 C2,10.09 2.28,9.36 2.85,8.75 C3.42,8.13 4.11,7.78 4.95,7.71 L5.47,7.65 C5.59,7.65 5.66,7.59 5.66,7.47 L5.74,6.95 C5.81,6.24 6.04,5.59 6.43,5.01 C6.82,4.43 7.33,3.97 7.95,3.65 C8.57,3.33 9.24,3.16 9.97,3.16 C11.06,3.16 12.01,3.52 12.82,4.24 C13.63,4.96 14.09,5.86 14.21,6.93 L14.28,7.51 C14.28,7.62 14.34,7.68 14.47,7.68 L16.07,7.68 C16.97,7.68 17.74,8 18.39,8.64 C19.03,9.28 19.36,10.04 19.36,10.93 C19.36,11.79 19.06,12.53 18.47,13.15 C17.88,13.77 17.14,14.12 16.28,14.18 C16.15,14.18 16.08,14.24 16.08,14.35 L16.08,15.69 C16.08,15.8 16.15,15.86 16.28,15.86 C17.62,15.8 18.75,15.29 19.66,14.35 C20.54,13.4 21,12.26 21,10.93 C21,10.29 20.84,9.61 20.53,8.87 C21.32,7.88 21.72,6.79 21.72,5.6 C21.72,4.65 21.48,3.77 21.01,2.97 C20.54,2.16 19.9,1.53 19.1,1.06 C18.3,0.59 17.42,0.36 16.48,0.36 C14.89,0.36 13.6,0.94 12.61,2.09 C11.8,1.66 10.91,1.45 9.95,1.45 C8.54,1.45 7.29,1.89 6.2,2.77 C5.11,3.65 4.41,4.77 4.1,6.14 C2.98,6.4 2.07,6.97 1.36,7.86 C0.64,8.75 0.29,9.77 0.29,10.93 Z M7.94,15.55 C7.92,15.69 7.96,15.76 8.08,15.76 L10.25,15.76 L8.93,19.93 L9.22,19.93 L13.4,14.35 C13.44,14.31 13.45,14.26 13.42,14.21 C13.39,14.16 13.35,14.14 13.28,14.14 L11.1,14.14 L13.4,9.9 C13.47,9.76 13.43,9.68 13.26,9.68 L10.32,9.68 C10.24,9.68 10.18,9.73 10.11,9.82 L7.94,15.55 Z M14,3.05 C14.67,2.39 15.49,2.06 16.47,2.06 C17.45,2.06 18.28,2.4 18.97,3.09 C19.66,3.77 20,4.61 20,5.6 C20,6.19 19.83,6.79 19.48,7.4 C18.51,6.47 17.36,6 16.03,6 L15.72,6 C15.44,4.81 14.86,3.83 14,3.05 Z" id="Shape"></path>
        </g>
    </g>
</svg>