<?xml version="1.0" encoding="UTF-8"?>
<svg width="28px" height="28px" viewBox="0 0 28 28" version="1.1" xmlns="http://www.w3.org/2000/svg" xmlns:xlink="http://www.w3.org/1999/xlink">
    <!-- Generator: Sketch 50.2 (55047) - http://www.bohemiancoding.com/sketch -->
    <title>13d</title>
    <desc>Created with Sketch.</desc>
    <defs></defs>
    <g id="Page-1" stroke="none" stroke-width="1" fill="none" fill-rule="evenodd">
        <g id="13d" fill="#FFFFFF" fill-rule="nonzero">
            <path d="M0.58,16.93 C0.58,17.79 0.79,18.6 1.22,19.34 C1.64,20.08 2.22,20.68 2.96,21.13 C3.69,21.58 4.5,21.82 5.36,21.84 C5.47,21.84 5.53,21.78 5.53,21.67 L5.53,20.34 C5.53,20.22 5.47,20.15 5.36,20.15 C4.51,20.11 3.78,19.77 3.18,19.13 C2.58,18.49 2.28,17.76 2.28,16.92 C2.28,16.1 2.56,15.38 3.13,14.76 C3.7,14.15 4.39,13.79 5.23,13.69 L5.76,13.63 C5.88,13.63 5.94,13.57 5.94,13.44 L6.02,12.93 C6.13,11.84 6.58,10.93 7.38,10.2 C8.18,9.47 9.13,9.11 10.23,9.11 C11.32,9.11 12.27,9.47 13.08,10.2 C13.9,10.93 14.36,11.83 14.46,12.9 L14.53,13.48 C14.53,13.59 14.59,13.65 14.7,13.65 L16.31,13.65 C17.21,13.65 17.98,13.97 18.62,14.61 C19.26,15.25 19.58,16.01 19.58,16.9 C19.58,17.74 19.28,18.47 18.68,19.11 C18.08,19.74 17.35,20.08 16.51,20.13 C16.39,20.13 16.32,20.19 16.32,20.32 L16.32,21.65 C16.32,21.76 16.38,21.82 16.51,21.82 C17.84,21.78 18.96,21.28 19.89,20.32 C20.82,19.36 21.28,18.23 21.28,16.91 C21.28,16.15 21.14,15.48 20.85,14.88 C21.6,13.95 22,12.85 22,11.6 C22,10.66 21.77,9.79 21.3,8.99 C20.83,8.19 20.19,7.55 19.39,7.08 C18.59,6.61 17.71,6.38 16.77,6.38 C15.23,6.38 13.94,6.96 12.9,8.11 C12.09,7.67 11.19,7.45 10.21,7.45 C8.8,7.45 7.56,7.89 6.47,8.76 C5.38,9.63 4.69,10.75 4.38,12.1 C3.26,12.38 2.35,12.96 1.64,13.85 C0.93,14.75 0.58,15.77 0.58,16.93 Z M6.92,20.98 C6.92,21.22 7,21.42 7.16,21.59 C7.32,21.76 7.51,21.84 7.75,21.84 C7.98,21.84 8.18,21.76 8.34,21.59 C8.5,21.42 8.58,21.22 8.58,20.98 C8.58,20.75 8.5,20.56 8.34,20.4 C8.18,20.24 7.99,20.16 7.75,20.16 C7.52,20.16 7.32,20.24 7.16,20.4 C7,20.56 6.92,20.76 6.92,20.98 Z M6.92,24.61 C6.92,24.82 7,25.01 7.16,25.18 C7.34,25.34 7.53,25.42 7.74,25.42 C7.98,25.42 8.17,25.34 8.33,25.19 C8.49,25.03 8.56,24.84 8.56,24.61 C8.56,24.37 8.48,24.18 8.32,24.02 C8.16,23.86 7.97,23.79 7.73,23.79 C7.5,23.79 7.3,23.87 7.14,24.02 C7,24.17 6.92,24.37 6.92,24.61 Z M8.97,4.68 C8.97,4.92 9.05,5.12 9.21,5.27 L9.87,5.93 C10.03,6.09 10.21,6.18 10.4,6.18 C10.61,6.21 10.81,6.14 11.01,5.96 C11.21,5.78 11.31,5.57 11.31,5.33 C11.31,5.09 11.23,4.87 11.07,4.69 L10.43,4.08 C10.28,3.91 10.09,3.83 9.85,3.83 C9.6,3.83 9.39,3.91 9.22,4.08 C9.05,4.24 8.97,4.44 8.97,4.68 Z M10.1,22.9 C10.1,23.12 10.18,23.32 10.34,23.5 C10.5,23.66 10.7,23.74 10.92,23.74 C11.16,23.74 11.36,23.66 11.52,23.5 C11.68,23.34 11.77,23.14 11.77,22.9 C11.77,22.67 11.69,22.47 11.52,22.3 C11.35,22.13 11.15,22.05 10.92,22.05 C10.69,22.05 10.5,22.13 10.34,22.3 C10.18,22.47 10.1,22.67 10.1,22.9 Z M10.1,19.3 C10.1,19.53 10.18,19.72 10.34,19.88 C10.5,20.04 10.7,20.12 10.92,20.12 C11.16,20.12 11.36,20.04 11.52,19.88 C11.69,19.72 11.77,19.53 11.77,19.29 C11.77,19.06 11.69,18.86 11.52,18.7 C11.35,18.54 11.15,18.46 10.92,18.46 C10.69,18.46 10.5,18.54 10.34,18.7 C10.18,18.86 10.1,19.07 10.1,19.3 Z M10.1,26.56 C10.1,26.78 10.18,26.97 10.34,27.13 C10.51,27.3 10.7,27.38 10.92,27.38 C11.16,27.38 11.36,27.3 11.52,27.15 C11.69,26.99 11.77,26.8 11.77,26.56 C11.77,26.32 11.69,26.12 11.52,25.96 C11.35,25.79 11.15,25.71 10.92,25.71 C10.7,25.71 10.51,25.79 10.34,25.96 C10.18,26.13 10.1,26.33 10.1,26.56 Z M13.32,20.98 C13.32,21.22 13.4,21.42 13.56,21.59 C13.72,21.76 13.92,21.84 14.15,21.84 C14.38,21.84 14.58,21.76 14.74,21.59 C14.9,21.42 14.98,21.22 14.98,20.98 C14.98,20.75 14.9,20.56 14.74,20.4 C14.58,20.24 14.39,20.16 14.15,20.16 C13.91,20.16 13.72,20.24 13.56,20.4 C13.4,20.56 13.32,20.76 13.32,20.98 Z M13.32,24.61 C13.32,24.82 13.4,25.01 13.55,25.18 C13.73,25.34 13.93,25.42 14.15,25.42 C14.39,25.42 14.58,25.34 14.74,25.19 C14.9,25.03 14.97,24.84 14.97,24.61 C14.97,24.37 14.89,24.18 14.73,24.02 C14.57,23.86 14.38,23.79 14.14,23.79 C13.9,23.79 13.7,23.87 13.54,24.03 C13.4,24.18 13.32,24.38 13.32,24.61 Z M14.3,9.06 C14.99,8.4 15.81,8.07 16.77,8.07 C17.74,8.07 18.57,8.42 19.25,9.11 C19.94,9.8 20.28,10.64 20.28,11.6 C20.28,12.22 20.11,12.84 19.77,13.44 C18.82,12.48 17.66,12 16.3,12 L15.98,12 C15.68,10.83 15.12,9.85 14.3,9.06 Z M15.9,3.84 C15.9,4.07 15.98,4.27 16.15,4.42 C16.32,4.57 16.52,4.65 16.76,4.65 C17,4.65 17.19,4.57 17.35,4.42 C17.51,4.26 17.58,4.07 17.58,3.84 L17.58,1.8 C17.58,1.56 17.5,1.36 17.34,1.19 C17.18,1.02 17,0.94 16.77,0.94 C16.54,0.94 16.34,1.03 16.17,1.2 C16,1.37 15.91,1.57 15.91,1.8 L15.91,3.84 L15.9,3.84 Z M21.42,6.11 C21.42,6.34 21.5,6.54 21.67,6.7 C21.82,6.86 22.01,6.94 22.23,6.96 C22.45,6.98 22.66,6.89 22.85,6.7 L24.28,5.27 C24.46,5.09 24.54,4.89 24.54,4.66 C24.54,4.42 24.45,4.22 24.28,4.05 C24.11,3.88 23.91,3.8 23.68,3.8 C23.46,3.8 23.27,3.88 23.1,4.05 L21.67,5.51 C21.5,5.67 21.42,5.87 21.42,6.11 Z M22.22,17.91 C22.22,18.16 22.3,18.37 22.46,18.53 L23.1,19.16 C23.34,19.32 23.56,19.4 23.74,19.4 C23.95,19.4 24.13,19.31 24.3,19.14 C24.47,18.97 24.55,18.76 24.55,18.53 C24.55,18.3 24.46,18.11 24.29,17.95 L23.67,17.3 C23.49,17.14 23.29,17.06 23.06,17.06 C22.83,17.06 22.63,17.14 22.47,17.31 C22.3,17.47 22.22,17.67 22.22,17.91 Z M23.67,11.6 C23.67,11.84 23.76,12.03 23.93,12.19 C24.1,12.37 24.31,12.46 24.55,12.46 L26.57,12.46 C26.8,12.46 27,12.38 27.17,12.21 C27.34,12.04 27.42,11.84 27.42,11.6 C27.42,11.36 27.34,11.16 27.17,11 C27,10.84 26.8,10.75 26.57,10.75 L24.55,10.75 C24.31,10.75 24.11,10.83 23.93,11 C23.75,11.17 23.67,11.37 23.67,11.6 Z" id="Shape"></path>
        </g>
    </g>
</svg>