<?xml version="1.0" encoding="UTF-8"?>
<svg width="22px" height="23px" viewBox="0 0 22 23" version="1.1" xmlns="http://www.w3.org/2000/svg" xmlns:xlink="http://www.w3.org/1999/xlink">
    <!-- Generator: Sketch 50.2 (55047) - http://www.bohemiancoding.com/sketch -->
    <title>13n</title>
    <desc>Created with Sketch.</desc>
    <defs></defs>
    <g id="Page-1" stroke="none" stroke-width="1" fill="none" fill-rule="evenodd">
        <g id="13n" fill="#FFFFFF" fill-rule="nonzero">
            <path d="M0.07,11.93 C0.07,13.26 0.54,14.4 1.47,15.36 C2.4,16.32 3.54,16.83 4.87,16.87 C4.99,16.87 5.05,16.81 5.05,16.7 L5.05,15.36 C5.05,15.25 4.99,15.19 4.87,15.19 C4.02,15.15 3.29,14.8 2.69,14.16 C2.08,13.52 1.78,12.77 1.78,11.92 C1.78,11.07 2.06,10.34 2.63,9.72 C3.2,9.1 3.9,8.76 4.73,8.69 L5.26,8.62 C5.39,8.62 5.46,8.56 5.46,8.45 L5.53,7.93 C5.64,6.84 6.09,5.92 6.9,5.18 C7.71,4.44 8.66,4.07 9.76,4.07 C10.85,4.07 11.8,4.44 12.62,5.17 C13.44,5.9 13.9,6.81 14.02,7.89 L14.1,8.46 C14.1,8.58 14.16,8.64 14.27,8.64 L15.89,8.64 C16.8,8.64 17.57,8.96 18.22,9.61 C18.87,10.25 19.19,11.02 19.19,11.92 C19.19,12.77 18.89,13.52 18.28,14.16 C17.67,14.8 16.95,15.14 16.1,15.19 C15.96,15.19 15.89,15.25 15.89,15.36 L15.89,16.7 C15.89,16.81 15.96,16.87 16.1,16.87 C16.98,16.85 17.78,16.61 18.51,16.16 C19.24,15.71 19.82,15.11 20.24,14.36 C20.66,13.61 20.87,12.8 20.87,11.93 C20.87,11.02 20.65,10.19 20.22,9.45 C20.96,8.79 21.46,7.93 21.74,6.87 L21.91,6.15 C21.92,6.14 21.93,6.11 21.93,6.07 C21.93,6 21.88,5.94 21.77,5.91 L21.16,5.74 C20.72,5.61 20.33,5.42 19.99,5.17 C19.65,4.92 19.38,4.64 19.18,4.33 C18.98,4.02 18.84,3.71 18.74,3.38 C18.64,3.06 18.59,2.74 18.59,2.43 C18.59,2.16 18.62,1.87 18.69,1.57 L18.8,0.95 C18.82,0.86 18.78,0.78 18.66,0.73 L17.86,0.49 C17.42,0.38 17.01,0.33 16.61,0.33 C16.24,0.33 15.87,0.37 15.49,0.46 C15.11,0.55 14.72,0.68 14.31,0.87 C13.9,1.06 13.51,1.32 13.13,1.67 C12.75,2.02 12.42,2.42 12.14,2.89 C11.33,2.56 10.54,2.39 9.76,2.39 C8.35,2.39 7.09,2.83 6,3.71 C4.91,4.59 4.2,5.71 3.89,7.08 C2.77,7.36 1.85,7.95 1.14,8.84 C0.43,9.74 0.07,10.77 0.07,11.93 Z M6.46,16.02 C6.46,16.26 6.54,16.46 6.7,16.62 C6.86,16.79 7.05,16.87 7.29,16.87 C7.53,16.87 7.73,16.79 7.89,16.62 C8.05,16.45 8.13,16.25 8.13,16.02 C8.13,15.8 8.05,15.6 7.89,15.44 C7.73,15.28 7.53,15.2 7.29,15.2 C7.06,15.2 6.86,15.28 6.7,15.44 C6.54,15.6 6.46,15.79 6.46,16.02 Z M6.46,19.66 C6.46,19.89 6.54,20.08 6.7,20.24 C6.86,20.4 7.06,20.48 7.28,20.48 C7.52,20.48 7.72,20.4 7.88,20.25 C8.04,20.09 8.12,19.9 8.12,19.66 C8.12,19.42 8.04,19.23 7.88,19.07 C7.72,18.91 7.52,18.84 7.28,18.84 C7.04,18.84 6.85,18.92 6.69,19.07 C6.54,19.22 6.46,19.42 6.46,19.66 Z M9.66,17.96 C9.66,18.2 9.74,18.4 9.9,18.55 C10.06,18.71 10.26,18.79 10.48,18.79 C10.72,18.79 10.92,18.71 11.09,18.55 C11.26,18.39 11.34,18.19 11.34,17.96 C11.34,17.72 11.26,17.52 11.09,17.35 C10.92,17.18 10.72,17.09 10.48,17.09 C10.26,17.09 10.07,17.18 9.9,17.35 C9.73,17.52 9.66,17.72 9.66,17.96 Z M9.66,14.32 C9.66,14.56 9.74,14.75 9.9,14.9 C10.06,15.06 10.26,15.14 10.48,15.14 C10.72,15.14 10.93,15.06 11.09,14.91 C11.25,14.76 11.34,14.56 11.34,14.32 C11.34,14.09 11.26,13.89 11.09,13.72 C10.92,13.55 10.72,13.47 10.48,13.47 C10.26,13.47 10.06,13.55 9.9,13.72 C9.74,13.89 9.66,14.09 9.66,14.32 Z M9.66,21.63 C9.66,21.85 9.74,22.04 9.9,22.2 C10.07,22.37 10.26,22.45 10.48,22.45 C10.72,22.45 10.92,22.37 11.09,22.21 C11.26,22.05 11.34,21.86 11.34,21.62 C11.34,21.38 11.26,21.18 11.09,21.01 C10.92,20.84 10.72,20.75 10.48,20.75 C10.26,20.75 10.07,20.84 9.9,21.01 C9.75,21.19 9.66,21.4 9.66,21.63 Z M12.9,16.02 C12.9,16.26 12.98,16.46 13.15,16.62 C13.32,16.78 13.51,16.87 13.75,16.87 C13.99,16.87 14.18,16.79 14.34,16.62 C14.5,16.45 14.58,16.25 14.58,16.02 C14.58,15.8 14.5,15.6 14.34,15.44 C14.18,15.28 13.99,15.2 13.75,15.2 C13.51,15.2 13.32,15.28 13.15,15.44 C12.98,15.6 12.9,15.79 12.9,16.02 Z M12.9,19.66 C12.9,19.89 12.98,20.08 13.14,20.24 C13.3,20.4 13.5,20.48 13.74,20.48 C13.98,20.48 14.17,20.4 14.33,20.24 C14.49,20.08 14.56,19.89 14.56,19.65 C14.56,19.41 14.48,19.22 14.33,19.06 C14.17,18.9 13.98,18.83 13.74,18.83 C13.5,18.83 13.3,18.91 13.14,19.06 C12.98,19.22 12.9,19.42 12.9,19.66 Z M13.58,3.77 C13.89,3.23 14.33,2.81 14.88,2.51 C15.43,2.21 16,2.06 16.59,2.05 C16.74,2.05 16.85,2.06 16.92,2.07 L16.92,2.38 C16.92,3.35 17.18,4.26 17.7,5.12 C18.22,5.98 18.95,6.63 19.87,7.08 C19.71,7.44 19.46,7.8 19.11,8.15 C18.22,7.36 17.15,6.97 15.88,6.97 L15.57,6.97 C15.3,5.74 14.64,4.68 13.58,3.77 Z" id="Shape"></path>
        </g>
    </g>
</svg>