<?xml version="1.0" encoding="UTF-8"?>
<svg width="30px" height="25px" viewBox="0 0 30 25" version="1.1" xmlns="http://www.w3.org/2000/svg" xmlns:xlink="http://www.w3.org/1999/xlink">
    <!-- Generator: Sketch 50.2 (55047) - http://www.bohemiancoding.com/sketch -->
    <title>50d</title>
    <desc>Created with Sketch.</desc>
    <defs></defs>
    <g id="Page-1" stroke="none" stroke-width="1" fill="none" fill-rule="evenodd">
        <g id="50d" fill="#FFFFFF" fill-rule="nonzero">
            <path d="M0.32,21.06 C0.32,21.29 0.4,21.49 0.57,21.65 C0.74,21.81 0.95,21.89 1.2,21.89 L19.91,21.89 C20.15,21.89 20.35,21.81 20.52,21.65 C20.69,21.49 20.77,21.3 20.77,21.06 C20.77,20.82 20.69,20.62 20.52,20.46 C20.35,20.29 20.15,20.21 19.91,20.21 L1.2,20.21 C0.95,20.21 0.74,20.29 0.57,20.46 C0.4,20.63 0.32,20.82 0.32,21.06 Z M2.94,17.92 C2.94,18.15 3.02,18.35 3.19,18.5 C3.36,18.68 3.56,18.77 3.79,18.77 L22.51,18.77 C22.74,18.77 22.94,18.69 23.1,18.52 C23.26,18.35 23.34,18.15 23.34,17.92 C23.34,17.69 23.26,17.49 23.11,17.33 C22.95,17.17 22.76,17.09 22.52,17.09 L3.8,17.09 C3.56,17.09 3.36,17.17 3.2,17.33 C3.03,17.5 2.94,17.69 2.94,17.92 Z M3.07,15.52 C3.07,15.61 3.12,15.65 3.23,15.65 L4.66,15.65 C4.73,15.65 4.8,15.6 4.87,15.49 C5.11,14.97 5.46,14.55 5.93,14.22 C6.4,13.89 6.92,13.7 7.49,13.66 L8.03,13.59 C8.14,13.59 8.2,13.53 8.2,13.41 L8.27,12.9 C8.38,11.82 8.83,10.92 9.64,10.19 C10.45,9.47 11.4,9.1 12.5,9.1 C13.58,9.1 14.53,9.46 15.34,10.18 C16.15,10.9 16.61,11.79 16.72,12.86 L16.79,13.44 C16.79,13.55 16.85,13.61 16.98,13.61 L18.59,13.61 C19.23,13.61 19.82,13.78 20.35,14.13 C20.88,14.47 21.27,14.93 21.53,15.5 C21.6,15.61 21.66,15.66 21.73,15.66 L23.17,15.66 C23.3,15.66 23.35,15.59 23.3,15.43 L23.1,14.88 C23.86,13.94 24.23,12.84 24.23,11.57 C24.23,10.86 24.09,10.19 23.82,9.54 C23.55,8.89 23.18,8.34 22.71,7.87 C22.25,7.4 21.69,7.03 21.04,6.75 C20.39,6.47 19.72,6.35 19,6.35 C17.46,6.35 16.18,6.91 15.18,8.03 C14.33,7.61 13.44,7.4 12.5,7.4 C11.1,7.4 9.85,7.84 8.76,8.72 C7.67,9.6 6.97,10.72 6.66,12.09 C4.88,12.56 3.68,13.67 3.08,15.44 C3.07,15.45 3.07,15.48 3.07,15.52 Z M4.69,24.13 C4.69,24.37 4.78,24.57 4.96,24.73 C5.12,24.9 5.31,24.99 5.55,24.99 L24.29,24.99 C24.52,24.99 24.72,24.91 24.89,24.74 C25.06,24.57 25.14,24.37 25.14,24.13 C25.14,23.9 25.06,23.71 24.89,23.55 C24.72,23.4 24.52,23.32 24.29,23.32 L5.55,23.32 C5.31,23.32 5.11,23.4 4.94,23.55 C4.77,23.71 4.69,23.9 4.69,24.13 Z M11.26,4.66 C11.26,4.9 11.34,5.09 11.49,5.25 L12.14,5.89 C12.31,6.07 12.5,6.16 12.72,6.16 C12.94,6.16 13.14,6.08 13.32,5.91 C13.49,5.74 13.58,5.54 13.58,5.3 C13.58,5.06 13.5,4.85 13.33,4.67 L12.69,4.06 C12.53,3.89 12.33,3.8 12.09,3.8 C11.85,3.8 11.65,3.88 11.49,4.05 C11.34,4.21 11.26,4.42 11.26,4.66 Z M16.58,9.04 C17.25,8.36 18.06,8.03 19.01,8.03 C19.99,8.03 20.83,8.38 21.52,9.07 C22.21,9.76 22.56,10.6 22.56,11.57 C22.56,12.22 22.4,12.82 22.07,13.37 C21.12,12.42 19.96,11.95 18.6,11.95 L18.26,11.95 C17.97,10.77 17.41,9.8 16.58,9.04 Z M18.18,3.81 C18.18,4.04 18.26,4.24 18.42,4.4 C18.58,4.56 18.77,4.64 19.01,4.64 C19.26,4.64 19.47,4.56 19.64,4.4 C19.81,4.24 19.89,4.05 19.89,3.81 L19.89,1.76 C19.89,1.53 19.8,1.33 19.63,1.16 C19.45,0.99 19.24,0.91 19,0.91 C18.77,0.91 18.57,0.99 18.41,1.16 C18.25,1.33 18.17,1.53 18.17,1.76 L18.17,3.81 L18.18,3.81 Z M23.67,6.08 C23.67,6.3 23.75,6.51 23.91,6.68 C24.28,7.04 24.69,7.04 25.14,6.68 L26.57,5.25 C26.73,5.07 26.81,4.86 26.81,4.61 C26.81,4.38 26.73,4.18 26.57,4.02 C26.41,3.86 26.21,3.78 25.98,3.78 C25.74,3.78 25.54,3.86 25.38,4.02 L23.92,5.49 C23.75,5.67 23.67,5.87 23.67,6.08 Z M24.48,17.88 C24.48,18.12 24.57,18.32 24.74,18.48 L25.38,19.13 C25.54,19.29 25.74,19.37 25.96,19.37 C26.17,19.37 26.37,19.29 26.57,19.13 C26.73,18.96 26.81,18.74 26.81,18.49 C26.81,18.27 26.73,18.08 26.57,17.93 L25.92,17.27 C25.74,17.11 25.54,17.03 25.32,17.03 C25.08,17.03 24.88,17.11 24.72,17.28 C24.56,17.44 24.48,17.64 24.48,17.88 Z M25.96,11.57 C25.96,11.81 26.05,12.01 26.22,12.17 C26.37,12.34 26.57,12.42 26.81,12.42 L28.86,12.42 C29.09,12.42 29.29,12.34 29.45,12.17 C29.61,12 29.69,11.8 29.69,11.57 C29.69,11.33 29.61,11.13 29.45,10.97 C29.29,10.81 29.1,10.73 28.86,10.73 L26.81,10.73 C26.57,10.73 26.37,10.81 26.21,10.98 C26.04,11.14 25.96,11.34 25.96,11.57 Z" id="Shape"></path>
        </g>
    </g>
</svg>