<?xml version="1.0" encoding="UTF-8"?>
<svg width="26px" height="20px" viewBox="0 0 26 20" version="1.1" xmlns="http://www.w3.org/2000/svg" xmlns:xlink="http://www.w3.org/1999/xlink">
    <!-- Generator: Sketch 50.2 (55047) - http://www.bohemiancoding.com/sketch -->
    <title>50n</title>
    <desc>Created with Sketch.</desc>
    <defs></defs>
    <g id="Page-1" stroke="none" stroke-width="1" fill="none" fill-rule="evenodd">
        <g id="50n" fill="#FFFFFF" fill-rule="nonzero">
            <path d="M0.66,15.92 C0.66,16.15 0.74,16.34 0.91,16.49 C1.08,16.65 1.29,16.72 1.53,16.72 L20.14,16.72 C20.38,16.72 20.58,16.64 20.74,16.49 C20.91,16.33 20.99,16.14 20.99,15.92 C20.99,15.68 20.91,15.47 20.75,15.31 C20.59,15.14 20.38,15.06 20.14,15.06 L1.53,15.06 C1.29,15.06 1.09,15.14 0.92,15.31 C0.75,15.48 0.66,15.69 0.66,15.92 Z M3.27,12.81 C3.27,13.05 3.36,13.24 3.53,13.4 C3.67,13.58 3.86,13.67 4.12,13.67 L22.73,13.67 C22.96,13.67 23.15,13.59 23.31,13.42 C23.47,13.25 23.54,13.05 23.54,12.81 C23.54,12.58 23.46,12.38 23.31,12.23 C23.16,12.08 22.96,12 22.73,12 L4.12,12 C3.88,12 3.68,12.08 3.52,12.23 C3.35,12.39 3.27,12.58 3.27,12.81 Z M3.42,10.39 L3.42,10.34 C3.38,10.49 3.42,10.56 3.54,10.56 L4.98,10.56 C5.04,10.56 5.1,10.51 5.17,10.41 C5.41,9.89 5.76,9.47 6.23,9.14 C6.7,8.81 7.22,8.62 7.78,8.58 L8.31,8.5 C8.43,8.5 8.5,8.44 8.5,8.32 L8.56,7.82 C8.67,6.74 9.12,5.85 9.92,5.12 C10.72,4.4 11.67,4.04 12.76,4.04 C13.83,4.04 14.78,4.4 15.58,5.11 C16.38,5.82 16.85,6.71 16.96,7.78 L17.03,8.35 C17.03,8.47 17.1,8.53 17.24,8.53 L18.82,8.53 C19.46,8.53 20.05,8.7 20.57,9.05 C21.09,9.39 21.49,9.85 21.74,10.41 C21.81,10.51 21.88,10.56 21.96,10.56 L23.38,10.56 C23.5,10.56 23.55,10.49 23.53,10.34 C23.31,9.78 23.16,9.43 23.07,9.28 C23.79,8.63 24.3,7.77 24.57,6.71 L24.74,6.05 C24.77,5.99 24.76,5.93 24.73,5.89 C24.7,5.85 24.66,5.82 24.61,5.82 L23.99,5.6 C23.1,5.34 22.42,4.82 21.95,4.02 C21.48,3.22 21.36,2.37 21.58,1.46 L21.71,0.88 C21.76,0.79 21.72,0.71 21.58,0.65 L20.74,0.42 C19.65,0.15 18.57,0.24 17.52,0.68 C16.47,1.12 15.65,1.83 15.05,2.8 C14.26,2.49 13.49,2.34 12.76,2.34 C11.37,2.34 10.14,2.78 9.05,3.65 C7.96,4.52 7.27,5.64 6.95,7 C6.11,7.2 5.37,7.6 4.73,8.21 C4.09,8.82 3.67,9.55 3.42,10.39 Z M5,18.97 C5,19.21 5.09,19.4 5.26,19.56 C5.43,19.74 5.63,19.83 5.85,19.83 L24.5,19.83 C24.73,19.83 24.93,19.75 25.09,19.58 C25.25,19.41 25.33,19.21 25.33,18.97 C25.33,18.74 25.25,18.55 25.09,18.39 C24.93,18.23 24.73,18.16 24.5,18.16 L5.86,18.16 C5.62,18.16 5.42,18.24 5.26,18.39 C5.09,18.55 5,18.74 5,18.97 Z M16.51,3.7 C16.86,3.13 17.33,2.68 17.92,2.37 C18.51,2.06 19.13,1.93 19.79,1.99 C19.72,3.03 19.96,4.01 20.49,4.92 C21.03,5.83 21.77,6.5 22.71,6.94 C22.56,7.29 22.31,7.65 21.96,8.01 C21.04,7.25 19.99,6.88 18.82,6.88 L18.5,6.88 C18.18,5.57 17.52,4.51 16.51,3.7 Z" id="Shape"></path>
        </g>
    </g>
</svg>